<svg xmlns="http://www.w3.org/2000/svg" width="14.7" height="14.769" viewBox="0 0 14.7 14.769">
  <defs>
    <style>
      .cls-1 {
        fill: #7b7a8d;
        stroke: #7b7a8d;
        stroke-width: 0.7px;
      }
    </style>
  </defs>
  <path id="cancel" class="cls-1" d="M3.539,2.727A.8.8,0,0,0,2.972,4.1L8.605,9.727,2.972,15.358a.8.8,0,0,0,1.134,1.134L9.739,10.86l5.633,5.631a.813.813,0,0,0,.567.235.794.794,0,0,0,.567-.235.806.806,0,0,0,0-1.134L10.873,9.727,16.506,4.1a.8.8,0,1,0-1.134-1.134L9.739,8.593,4.106,2.961a.8.8,0,0,0-.567-.235Z" transform="translate(-2.389 -2.307)"/>
</svg>
