<svg xmlns="http://www.w3.org/2000/svg" width="18" height="18" viewBox="0 0 18 18">
  <defs>
    <style>
      .cls-1 {
        fill: none;
        stroke: #7b7a8d;
        stroke-linecap: round;
        stroke-miterlimit: 10;
        stroke-width: 2px;
      }

      .cls-2 {
        fill: #7b7a8d;
      }
    </style>
  </defs>
  <g id="Group_11747" data-name="Group 11747" transform="translate(1 1)">
    <g id="Group_5955" data-name="Group 5955">
      <circle id="Ellipse_372" data-name="Ellipse 372" class="cls-1" cx="8" cy="8" r="8"/>
      <path id="Path_7308" data-name="Path 7308" class="cls-2" d="M1.9-2.426a2.374,2.374,0,0,1,.243-1.2,4.03,4.03,0,0,1,.946-.926,3.092,3.092,0,0,0,.665-.732A1.607,1.607,0,0,0,4-6.164a1.189,1.189,0,0,0-.284-.844,1.055,1.055,0,0,0-.812-.3,1.093,1.093,0,0,0-.735.258.955.955,0,0,0-.308.756H.2L.188-6.334A2.02,2.02,0,0,1,.929-8.057a3.1,3.1,0,0,1,1.978-.6,2.988,2.988,0,0,1,2.06.665,2.3,2.3,0,0,1,.747,1.808A2.376,2.376,0,0,1,5.276-4.8,3.9,3.9,0,0,1,4.184-3.744a1.4,1.4,0,0,0-.469.554,2.116,2.116,0,0,0-.111.765ZM3.615,0H1.893V-1.465H3.615Z" transform="translate(5.312 12.154)"/>
    </g>
  </g>
</svg>
