<?xml version="1.0" encoding="iso-8859-1"?>
<!-- Generator: Adobe Illustrator 19.0.0, SVG Export Plug-In . SVG Version: 6.00 Build 0)  -->
<svg version="1.1" id="Layer_1" xmlns="http://www.w3.org/2000/svg" xmlns:xlink="http://www.w3.org/1999/xlink" x="0px" y="0px"
	 viewBox="0 0 511.998 511.998" style="enable-background:new 0 0 511.998 511.998;" xml:space="preserve">
<g>
	<g>
		<g>
			<path d="M450.911,178.116h-20.505V164.08c12.816-2.114,22.625-13.267,22.625-26.672V117.87c0-14.908-12.128-27.038-27.038-27.038
				h-15.031v-3.387c0-14.908-12.129-27.038-27.039-27.038h-22.752v-1.124C361.171,26.596,334.577,0,301.887,0h-91.778
				c-32.691,0-59.285,26.596-59.285,59.284v1.124h-22.749c-14.908,0-27.039,12.128-27.039,27.038v3.387H86.005
				c-14.908,0-27.038,12.128-27.038,27.038v19.537c0,13.405,9.809,24.558,22.625,26.672v14.037H61.087
				c-8.691,0-15.762,7.071-15.762,15.761v16.487c0,8.691,7.071,15.761,15.762,15.761h20.507v248.898
				c0,20.387,16.586,36.974,36.975,36.974h274.863c20.388,0,36.975-16.586,36.975-36.974V226.128h20.505
				c8.691,0,15.762-7.071,15.762-15.761v-16.487C466.675,185.188,459.603,178.116,450.911,178.116z M210.109,16.137h91.778
				c23.792,0,43.148,19.357,43.148,43.148v1.124h-23.066v-1.124c0-10.886-9.197-20.082-20.082-20.082h-91.778
				c-10.886,0-20.083,9.196-20.083,20.082v1.124H166.96v-1.124h0C166.96,35.492,186.317,16.137,210.109,16.137z M305.832,59.284
				v1.124h-99.668v-1.124c0-2.064,1.88-3.945,3.946-3.945h91.778C303.952,55.339,305.832,57.22,305.832,59.284z M117.174,87.446
				c0-6.01,4.891-10.901,10.902-10.901h255.848c6.012,0,10.902,4.889,10.902,10.901v3.387H117.174V87.446z M81.593,209.991H61.461
				v-15.738h20.132V209.991z M414.269,475.026c0,11.489-9.347,20.837-20.838,20.837H118.568c-11.49,0-20.838-9.347-20.838-20.837
				v-8.017h316.539V475.026z M414.269,450.872H97.73V164.445h316.539V450.872z M425.993,148.309H86.005
				c-6.01,0-10.901-4.889-10.901-10.901V117.87c0-6.01,4.891-10.901,10.901-10.901h339.988c6.01,0,10.901,4.891,10.901,10.901
				v19.537C436.894,143.419,432.003,148.309,425.993,148.309z M450.538,209.991h-20.132v-15.738h20.132V209.991z"/>
			<path d="M165.369,433.375c15.258,0,27.67-12.412,27.67-27.67V221.724c0-15.258-12.412-27.67-27.67-27.67
				s-27.671,12.412-27.671,27.67v183.981C137.698,420.963,150.111,433.375,165.369,433.375z M153.834,221.724
				c0-6.36,5.174-11.533,11.535-11.533c6.359,0,11.534,5.173,11.534,11.533v183.981c0,6.36-5.175,11.534-11.534,11.534
				c-6.36,0-11.535-5.173-11.535-11.534V221.724z"/>
			<path d="M255.999,433.375c15.258,0,27.67-12.412,27.67-27.67V221.724c0-15.258-12.412-27.67-27.67-27.67
				c-15.258,0-27.67,12.412-27.67,27.67v183.981C228.329,420.963,240.742,433.375,255.999,433.375z M244.466,221.724
				c0-6.36,5.174-11.533,11.533-11.533c6.359,0,11.533,5.173,11.533,11.533v183.981c0,6.36-5.174,11.534-11.533,11.534
				c-6.359,0-11.533-5.173-11.533-11.534V221.724z"/>
			<path d="M346.63,433.375c15.258,0,27.67-12.412,27.67-27.67V221.724c0-15.258-12.412-27.67-27.67-27.67
				c-15.258,0-27.67,12.412-27.67,27.67v183.981C318.96,420.963,331.372,433.375,346.63,433.375z M335.097,221.724
				c0-6.36,5.174-11.533,11.533-11.533c6.359,0,11.534,5.173,11.534,11.533v183.981c0,6.36-5.174,11.534-11.534,11.534
				c-6.359,0-11.533-5.173-11.533-11.534V221.724z"/>
		</g>
	</g>
</g>
<g>
</g>
<g>
</g>
<g>
</g>
<g>
</g>
<g>
</g>
<g>
</g>
<g>
</g>
<g>
</g>
<g>
</g>
<g>
</g>
<g>
</g>
<g>
</g>
<g>
</g>
<g>
</g>
<g>
</g>
</svg>
