<svg xmlns="http://www.w3.org/2000/svg" width="56" height="56.665" viewBox="0 0 56 56.665">
  <path id="Path_62401" data-name="Path 62401" d="M294.874,417.288a15.491,15.491,0,1,1-15.49,15.49,15.491,15.491,0,0,1,15.49-15.49Zm-27.3-5.933,21.754-17.1c5.228-4.341,7.727-2.731,11.79.46l10.684,8.313v-1.13a1.57,1.57,0,0,1,1.637-1.483h4.249a1.569,1.569,0,0,1,1.635,1.483v6.781a1.392,1.392,0,0,1-.012.19l2.711,2.109c2.425,2.285-.629,4.885-2.806,2.969l-21-16.337c-2.447-2.018-3.335-2.817-5.842-.588l-.144.123L270.4,414.308c-2.574,1.669-4.572-1.229-2.822-2.953Zm30.735-10.962c-2.356-2.363-3.741-2.267-6.089-.081l-20.474,16.252v13.261c0,2.9,2.629,5.289,5.9,5.412a17.486,17.486,0,1,1,34.755-2.744,17.749,17.749,0,0,1-.215,2.751h1.065c3.393,0,6.169-2.439,6.169-5.419V416.9l-21.108-16.508Zm2.592,32.385-6.029-6.029-6.029,6.029,6.029,6.028Z" transform="translate(-266.917 -391.604)" fill="#00abfe" fill-rule="evenodd"/>
</svg>
