<svg xmlns="http://www.w3.org/2000/svg" width="13.75" height="15" viewBox="0 0 13.75 15">
  <defs>
    <style>
      .cls-1 {
        fill: #7b7a8d;
      }
    </style>
  </defs>
  <g id="_098-trash" data-name="098-trash" transform="translate(-1)">
    <path id="Path_29818" data-name="Path 29818" class="cls-1" d="M12.531,17.625H4.719A1.72,1.72,0,0,1,3,15.906V7.469A.469.469,0,0,1,3.469,7H13.781a.469.469,0,0,1,.469.469v8.438A1.72,1.72,0,0,1,12.531,17.625ZM3.938,7.938v7.969a.782.782,0,0,0,.781.781h7.813a.782.782,0,0,0,.781-.781V7.938Z" transform="translate(-0.75 -2.625)"/>
    <path id="Path_29819" data-name="Path 29819" class="cls-1" d="M14.281,6.438H1.469A.469.469,0,0,1,1,5.969V4.719A1.72,1.72,0,0,1,2.719,3H13.031A1.72,1.72,0,0,1,14.75,4.719v1.25A.469.469,0,0,1,14.281,6.438ZM1.937,5.5H13.813V4.719a.782.782,0,0,0-.781-.781H2.719a.782.782,0,0,0-.781.781Z" transform="translate(0 -1.125)"/>
    <path id="Path_29820" data-name="Path 29820" class="cls-1" d="M12.531,2.813H8.469A.469.469,0,0,1,8,2.344V1.094A1.1,1.1,0,0,1,9.094,0h2.813A1.1,1.1,0,0,1,13,1.094v1.25A.469.469,0,0,1,12.531,2.813ZM8.938,1.875h3.125V1.094a.156.156,0,0,0-.156-.156H9.094a.156.156,0,0,0-.156.156Z" transform="translate(-2.625)"/>
    <path id="Path_29821" data-name="Path 29821" class="cls-1" d="M7.469,16.625A.469.469,0,0,1,7,16.156V11.469a.469.469,0,0,1,.938,0v4.688A.469.469,0,0,1,7.469,16.625Z" transform="translate(-2.25 -4.125)"/>
    <path id="Path_29822" data-name="Path 29822" class="cls-1" d="M11.719,16.625a.469.469,0,0,1-.469-.469V11.469a.469.469,0,0,1,.938,0v4.688A.469.469,0,0,1,11.719,16.625Z" transform="translate(-3.844 -4.125)"/>
    <path id="Path_29823" data-name="Path 29823" class="cls-1" d="M15.969,16.625a.469.469,0,0,1-.469-.469V11.469a.469.469,0,0,1,.938,0v4.688A.469.469,0,0,1,15.969,16.625Z" transform="translate(-5.437 -4.125)"/>
  </g>
</svg>
